<svg xmlns="http://www.w3.org/2000/svg" fill="" viewBox="0 0 482 459.5">
    <path fill="rgb(49, 186, 183)" d="M393,401C388,354 355,291 332,281C341,222 344,211 347,174C346,154 334,144 318,142C303,141 297,147 290,155C282,164 284,166 272,247C241,237 194,233 161,247C157,220 153,193 150,167C148,161 134,136 108,147C82,157 86,180 86,183C91,216 96,249 100,282C73,301 43,355 42,401C40,401 39,401 38,400C46,403 3,385 0,342C1,305 0,191 0,56C6,9 49,1 57,1C144,1 316,1 319,1C341,3 373,19 377,55C377,78 377,99 377,123C429,139 434,191 434,191C434,191 434,326 434,345C427,379 402,400 393,401M165,304C185,303 186,359 165,356C147,357 147,303 165,304M271,304C290,304 287,359 271,358C248,355 257,303 271,304M216,358C225,358 235,366 234,375C235,385 224,393 223,392C231,407 240,408 242,407C252,409 249,416 240,417C220,413 219,399 216,398C216,400 210,414 191,415C181,415 186,407 188,407C200,407 208,403 210,392C209,393 199,387 199,375C199,363 210,358 216,358"/>
</svg>
